<mxfile host="app.diagrams.net" modified="2024-06-21T15:22:22.091Z" agent="Mozilla/5.0 (Windows NT 10.0; Win64; x64) AppleWebKit/537.36 (KHTML, like Gecko) Chrome/126.0.0.0 Safari/537.36 Edg/126.0.0.0" etag="dwXNVZeVj3OOraWySyAx" version="24.6.1" type="device">
  <diagram name="Page-1" id="JVQCjZKQB_kzvp1OQlc5">
    <mxGraphModel dx="936" dy="533" grid="1" gridSize="10" guides="1" tooltips="1" connect="1" arrows="1" fold="1" page="1" pageScale="1" pageWidth="850" pageHeight="1100" math="0" shadow="0">
      <root>
        <mxCell id="0" />
        <mxCell id="1" parent="0" />
        <mxCell id="6C7vEtWkpYMHMdvsJsKf-7" value="" style="edgeStyle=orthogonalEdgeStyle;rounded=0;orthogonalLoop=1;jettySize=auto;html=1;" edge="1" parent="1" source="6C7vEtWkpYMHMdvsJsKf-1" target="6C7vEtWkpYMHMdvsJsKf-6">
          <mxGeometry relative="1" as="geometry" />
        </mxCell>
        <mxCell id="6C7vEtWkpYMHMdvsJsKf-1" value="Initialize Tracker" style="rounded=0;whiteSpace=wrap;html=1;fontStyle=1" vertex="1" parent="1">
          <mxGeometry x="160" y="80" width="120" height="60" as="geometry" />
        </mxCell>
        <mxCell id="6C7vEtWkpYMHMdvsJsKf-9" value="" style="edgeStyle=orthogonalEdgeStyle;rounded=0;orthogonalLoop=1;jettySize=auto;html=1;" edge="1" parent="1" source="6C7vEtWkpYMHMdvsJsKf-6" target="6C7vEtWkpYMHMdvsJsKf-8">
          <mxGeometry relative="1" as="geometry" />
        </mxCell>
        <mxCell id="6C7vEtWkpYMHMdvsJsKf-6" value="Is Video Stream Open?" style="rounded=0;whiteSpace=wrap;html=1;fontStyle=1" vertex="1" parent="1">
          <mxGeometry x="360" y="80" width="120" height="60" as="geometry" />
        </mxCell>
        <mxCell id="6C7vEtWkpYMHMdvsJsKf-11" value="" style="edgeStyle=orthogonalEdgeStyle;rounded=0;orthogonalLoop=1;jettySize=auto;html=1;" edge="1" parent="1" source="6C7vEtWkpYMHMdvsJsKf-8" target="6C7vEtWkpYMHMdvsJsKf-10">
          <mxGeometry relative="1" as="geometry" />
        </mxCell>
        <mxCell id="6C7vEtWkpYMHMdvsJsKf-8" value="Read Video Frame" style="rounded=0;whiteSpace=wrap;html=1;fontStyle=1" vertex="1" parent="1">
          <mxGeometry x="560" y="80" width="120" height="60" as="geometry" />
        </mxCell>
        <mxCell id="6C7vEtWkpYMHMdvsJsKf-13" value="" style="edgeStyle=orthogonalEdgeStyle;rounded=0;orthogonalLoop=1;jettySize=auto;html=1;" edge="1" parent="1" source="6C7vEtWkpYMHMdvsJsKf-10" target="6C7vEtWkpYMHMdvsJsKf-12">
          <mxGeometry relative="1" as="geometry" />
        </mxCell>
        <mxCell id="6C7vEtWkpYMHMdvsJsKf-33" style="edgeStyle=orthogonalEdgeStyle;rounded=0;orthogonalLoop=1;jettySize=auto;html=1;entryX=1;entryY=0.5;entryDx=0;entryDy=0;" edge="1" parent="1" source="6C7vEtWkpYMHMdvsJsKf-10" target="6C7vEtWkpYMHMdvsJsKf-24">
          <mxGeometry relative="1" as="geometry">
            <Array as="points">
              <mxPoint x="720" y="230" />
              <mxPoint x="720" y="470" />
            </Array>
          </mxGeometry>
        </mxCell>
        <mxCell id="6C7vEtWkpYMHMdvsJsKf-10" value="Is Frame Read?" style="rounded=0;whiteSpace=wrap;html=1;fontStyle=1" vertex="1" parent="1">
          <mxGeometry x="560" y="200" width="120" height="60" as="geometry" />
        </mxCell>
        <mxCell id="6C7vEtWkpYMHMdvsJsKf-15" value="" style="edgeStyle=orthogonalEdgeStyle;rounded=0;orthogonalLoop=1;jettySize=auto;html=1;" edge="1" parent="1" source="6C7vEtWkpYMHMdvsJsKf-12" target="6C7vEtWkpYMHMdvsJsKf-14">
          <mxGeometry relative="1" as="geometry" />
        </mxCell>
        <mxCell id="6C7vEtWkpYMHMdvsJsKf-12" value="Selected Point?" style="rounded=0;whiteSpace=wrap;html=1;fontStyle=1" vertex="1" parent="1">
          <mxGeometry x="560" y="320" width="120" height="60" as="geometry" />
        </mxCell>
        <mxCell id="6C7vEtWkpYMHMdvsJsKf-17" value="" style="edgeStyle=orthogonalEdgeStyle;rounded=0;orthogonalLoop=1;jettySize=auto;html=1;" edge="1" parent="1" source="6C7vEtWkpYMHMdvsJsKf-14" target="6C7vEtWkpYMHMdvsJsKf-16">
          <mxGeometry relative="1" as="geometry" />
        </mxCell>
        <mxCell id="6C7vEtWkpYMHMdvsJsKf-14" value="Update Tracker" style="rounded=0;whiteSpace=wrap;html=1;fontStyle=1" vertex="1" parent="1">
          <mxGeometry x="360" y="320" width="120" height="60" as="geometry" />
        </mxCell>
        <mxCell id="6C7vEtWkpYMHMdvsJsKf-19" value="" style="edgeStyle=orthogonalEdgeStyle;rounded=0;orthogonalLoop=1;jettySize=auto;html=1;" edge="1" parent="1" source="6C7vEtWkpYMHMdvsJsKf-16" target="6C7vEtWkpYMHMdvsJsKf-18">
          <mxGeometry relative="1" as="geometry" />
        </mxCell>
        <mxCell id="6C7vEtWkpYMHMdvsJsKf-16" value="Update Kalman Filter" style="rounded=0;whiteSpace=wrap;html=1;fontStyle=1" vertex="1" parent="1">
          <mxGeometry x="360" y="200" width="120" height="60" as="geometry" />
        </mxCell>
        <mxCell id="6C7vEtWkpYMHMdvsJsKf-21" value="" style="edgeStyle=orthogonalEdgeStyle;rounded=0;orthogonalLoop=1;jettySize=auto;html=1;" edge="1" parent="1" source="6C7vEtWkpYMHMdvsJsKf-18" target="6C7vEtWkpYMHMdvsJsKf-20">
          <mxGeometry relative="1" as="geometry" />
        </mxCell>
        <mxCell id="6C7vEtWkpYMHMdvsJsKf-18" value="Draw Results" style="rounded=0;whiteSpace=wrap;html=1;fontStyle=1" vertex="1" parent="1">
          <mxGeometry x="160" y="200" width="120" height="60" as="geometry" />
        </mxCell>
        <mxCell id="6C7vEtWkpYMHMdvsJsKf-23" value="" style="edgeStyle=orthogonalEdgeStyle;rounded=0;orthogonalLoop=1;jettySize=auto;html=1;" edge="1" parent="1" source="6C7vEtWkpYMHMdvsJsKf-20" target="6C7vEtWkpYMHMdvsJsKf-22">
          <mxGeometry relative="1" as="geometry" />
        </mxCell>
        <mxCell id="6C7vEtWkpYMHMdvsJsKf-20" value="Display Frame" style="rounded=0;whiteSpace=wrap;html=1;fontStyle=1" vertex="1" parent="1">
          <mxGeometry x="160" y="320" width="120" height="60" as="geometry" />
        </mxCell>
        <mxCell id="6C7vEtWkpYMHMdvsJsKf-25" value="" style="edgeStyle=orthogonalEdgeStyle;rounded=0;orthogonalLoop=1;jettySize=auto;html=1;" edge="1" parent="1" source="6C7vEtWkpYMHMdvsJsKf-22" target="6C7vEtWkpYMHMdvsJsKf-24">
          <mxGeometry relative="1" as="geometry" />
        </mxCell>
        <mxCell id="6C7vEtWkpYMHMdvsJsKf-34" value="If &#39;q&#39; pressed" style="edgeLabel;html=1;align=center;verticalAlign=middle;resizable=0;points=[];fontStyle=1;fontSize=18;" vertex="1" connectable="0" parent="6C7vEtWkpYMHMdvsJsKf-25">
          <mxGeometry x="-0.2083" y="-6" relative="1" as="geometry">
            <mxPoint x="8" y="14" as="offset" />
          </mxGeometry>
        </mxCell>
        <mxCell id="6C7vEtWkpYMHMdvsJsKf-35" style="edgeStyle=orthogonalEdgeStyle;rounded=0;orthogonalLoop=1;jettySize=auto;html=1;entryX=0.5;entryY=0;entryDx=0;entryDy=0;" edge="1" parent="1" source="6C7vEtWkpYMHMdvsJsKf-22" target="6C7vEtWkpYMHMdvsJsKf-10">
          <mxGeometry relative="1" as="geometry">
            <Array as="points">
              <mxPoint x="120" y="470" />
              <mxPoint x="120" y="170" />
              <mxPoint x="620" y="170" />
            </Array>
          </mxGeometry>
        </mxCell>
        <mxCell id="6C7vEtWkpYMHMdvsJsKf-22" value="Check Exit Condition" style="rounded=0;whiteSpace=wrap;html=1;fontStyle=1" vertex="1" parent="1">
          <mxGeometry x="160" y="440" width="120" height="60" as="geometry" />
        </mxCell>
        <mxCell id="6C7vEtWkpYMHMdvsJsKf-24" value="&lt;div&gt;&lt;br&gt;&lt;/div&gt;Release Resources&lt;div&gt;&lt;br/&gt;&lt;/div&gt;" style="rounded=0;whiteSpace=wrap;html=1;fontStyle=1" vertex="1" parent="1">
          <mxGeometry x="470" y="440" width="120" height="60" as="geometry" />
        </mxCell>
        <mxCell id="6C7vEtWkpYMHMdvsJsKf-26" value="&lt;b style=&quot;font-size: 18px;&quot;&gt;YES&lt;/b&gt;" style="text;html=1;align=center;verticalAlign=middle;whiteSpace=wrap;rounded=0;fontSize=18;" vertex="1" parent="1">
          <mxGeometry x="620" y="270" width="60" height="30" as="geometry" />
        </mxCell>
        <mxCell id="6C7vEtWkpYMHMdvsJsKf-29" value="&lt;b style=&quot;font-size: 18px;&quot;&gt;YES&lt;/b&gt;" style="text;html=1;align=center;verticalAlign=middle;whiteSpace=wrap;rounded=0;fontSize=18;" vertex="1" parent="1">
          <mxGeometry x="490" y="360" width="60" height="30" as="geometry" />
        </mxCell>
        <mxCell id="6C7vEtWkpYMHMdvsJsKf-31" value="&lt;b style=&quot;font-size: 20px;&quot;&gt;NO&lt;/b&gt;" style="text;html=1;align=center;verticalAlign=middle;whiteSpace=wrap;rounded=0;fontSize=20;" vertex="1" parent="1">
          <mxGeometry x="720" y="345" width="60" height="30" as="geometry" />
        </mxCell>
        <mxCell id="6C7vEtWkpYMHMdvsJsKf-36" value="If &#39;q&#39; not pressed" style="edgeLabel;html=1;align=center;verticalAlign=middle;resizable=0;points=[];fontStyle=1;rotation=-90;fontSize=17;" vertex="1" connectable="0" parent="1">
          <mxGeometry x="99.9989473684208" y="310" as="geometry" />
        </mxCell>
      </root>
    </mxGraphModel>
  </diagram>
</mxfile>
